# xmcd
#
# Track frame offsets:
#	150
#	12082
#	26890
#	48587
#	61637
#	78153
#	86227
#	96003
#	107900
#	123747
#	143096
#	160697
#	183332
#
# Disc length: 2728 seconds
#
# Revision: 0
# Processed by: cddbd v1.5PL3 Copyright (c) Steve Scherf et al.
# Submitted via: audiograbber 1.82.02
#
DISCID=a30aa60d
DTITLE=Hulan, Hromcik, Malina - Guitar Session
DYEAR=2001
DGENRE=
TTITLE0=Beaumont Rag
TTITLE1=Pocta Davidovi (Homage To David)
TTITLE2=Chanela
TTITLE3=Kolobezka (Scooter)
TTITLE4=Big Boss
TTITLE5=Bianca´s Lullaby
TTITLE6=Radim´s Breakdown
TTITLE7=Takyrada (Shelovestoo)
TTITLE8=Zlate strevicky (Golden Slippers)
TTITLE9=Swing 1001
TTITLE10=I tisic mil bych sel
TTITLE11=Black Orpheus
TTITLE12=Obzor za duhou (Over The Rainbow)
EXTD=
EXTT0=
EXTT1=
EXTT2=
EXTT3=
EXTT4=
EXTT5=
EXTT6=
EXTT7=
EXTT8=
EXTT9=
EXTT10=
EXTT11=
EXTT12=
PLAYORDER=
